<svg width="26" height="26" viewBox="0 0 24 24" fill="none" xmlns="http://www.w3.org/2000/svg">
    <path
        d="M21.3728 10.1118H20.6018V10.072H11.987V13.9009H17.3966C16.6074 16.1297 14.4867 17.7297 11.987 17.7297C8.81521 17.7297 6.24369 15.1581 6.24369 11.9864C6.24369 8.81473 8.81521 6.24319 11.987 6.24319C13.451 6.24319 14.7829 6.7955 15.7971 7.69764L18.5045 4.9902C16.795 3.39693 14.5082 2.41436 11.987 2.41436C6.70075 2.41436 2.41486 6.70026 2.41486 11.9864C2.41486 17.2726 6.70075 21.5585 11.987 21.5585C17.2731 21.5585 21.559 17.2726 21.559 11.9864C21.559 11.3446 21.493 10.7181 21.3728 10.1118Z"
        fill="#FBC02D" />
    <path
        d="M3.51855 7.53103L6.66345 9.83745C7.51443 7.73062 9.57531 6.24314 11.9869 6.24314C13.451 6.24314 14.7829 6.79544 15.7971 7.69758L18.5046 4.99015C16.795 3.39688 14.5082 2.41431 11.9869 2.41431C8.31031 2.41431 5.12187 4.49001 3.51855 7.53103Z"
        fill="#E53935" />
    <path
        d="M11.9864 21.5586C14.4589 21.5586 16.7054 20.6124 18.404 19.0737L15.4414 16.5667C14.4804 17.2947 13.2858 17.7297 11.9864 17.7297C9.49669 17.7297 7.3827 16.1422 6.5863 13.9268L3.46484 16.3318C5.04903 19.4316 8.26622 21.5586 11.9864 21.5586Z"
        fill="#4CAF50" />
    <path
        d="M21.3724 10.1118L21.3647 10.0721H20.6013H11.9865V13.9009H17.3961C17.0171 14.9716 16.3284 15.8948 15.4401 16.5672L15.4415 16.5663L18.404 19.0732C18.1945 19.2637 21.5586 16.7726 21.5586 11.9866C21.5586 11.3447 21.4925 10.7182 21.3724 10.1118Z"
        fill="#1565C0" />
</svg>
